<svg width="600" height="516" viewBox="0 0 600 516" fill="none" xmlns="http://www.w3.org/2000/svg">
<path fill-rule="evenodd" clip-rule="evenodd" d="M347.355 480.588C339.252 492.702 325.952 500.611 310.934 500.611H289.065C274.045 500.611 260.745 492.702 252.643 480.588H347.355V480.588ZM355.626 448.982V453.006C355.626 459.124 354.54 464.976 352.561 470.355H247.436C245.457 464.976 244.372 459.124 244.372 453.006V448.982H355.626ZM141.3 88.6782C80.6678 114.092 39.5085 163.463 39.5085 220.151C39.5085 268.979 70.5471 314.738 122.672 342.756L74.7234 444.707L187.773 364.742L187.103 294.687C149.017 262.702 125.031 214.99 125.031 161.883C125.031 135.789 130.854 110.972 141.3 88.6775V88.6782ZM458.698 88.6782C519.329 114.092 560.488 163.463 560.488 220.151C560.488 268.979 529.45 314.738 477.325 342.756L525.274 444.707L412.224 364.742L411.436 295.897C450.367 263.914 474.966 215.663 474.966 161.884C474.966 135.79 469.143 110.973 458.698 88.6782V88.6782ZM244.31 417.852H355.687V439.094H244.31V417.852Z" fill="white"/>
<path fill-rule="evenodd" clip-rule="evenodd" d="M213.388 280.944V349.696C213.388 376.262 234.523 397.671 260.357 397.671H338.182C364.016 397.671 385.152 376.262 385.152 349.696V281.961C423.575 255.449 448.681 211.524 448.681 161.884C448.681 81.075 382.103 15.3859 299.999 15.3859C217.894 15.3859 151.316 81.075 151.316 161.884C151.316 210.899 175.793 254.341 213.388 280.944V280.944Z" fill="white"/>
</svg>
