<svg width="600" height="518" viewBox="0 0 600 518" fill="none" xmlns="http://www.w3.org/2000/svg">
<path fill-rule="evenodd" clip-rule="evenodd" d="M139.395 93.2475L141.299 89.0219C80.6677 114.534 39.5084 164.097 39.5084 221.004C39.5084 270.021 70.5471 315.958 122.672 344.085L74.7233 446.43L187.773 366.156L187.103 295.829C149.017 263.72 125.03 215.823 125.03 162.511C125.03 137.953 130.149 114.521 139.395 93.2475V93.2475Z" fill="#05DA71"/>
<path fill-rule="evenodd" clip-rule="evenodd" d="M458.698 89.0219C519.329 114.534 560.488 164.097 560.488 221.004C560.488 270.021 529.45 315.958 477.325 344.085L525.274 446.43L412.224 366.156L411.436 297.044C450.367 264.937 474.966 216.499 474.966 162.511C474.966 136.316 469.143 111.403 458.698 89.0219V89.0219Z" fill="#20AAFF"/>
<path fill-rule="evenodd" clip-rule="evenodd" d="M347.355 482.45C339.252 494.612 325.952 502.552 310.934 502.552H289.065C274.045 502.552 260.745 494.612 252.643 482.45H347.355V482.45ZM355.626 450.723V454.762C355.626 460.904 354.54 466.779 352.561 472.178H247.436C245.457 466.779 244.372 460.904 244.372 454.762V450.723H355.626ZM244.31 419.471H355.687V440.796H244.31V419.471ZM213.389 282.033V351.052C213.389 377.721 234.524 399.213 260.358 399.213H338.184C364.018 399.213 385.153 377.721 385.153 351.051V283.054C423.576 256.439 448.683 212.344 448.683 162.511C448.683 81.3892 382.104 15.4455 300 15.4455C217.896 15.4455 151.317 81.3892 151.317 162.511C151.317 211.717 175.795 255.326 213.389 282.033Z" fill="#F9C74F"/>
</svg>
