<svg width="600" height="518" viewBox="0 0 600 518" fill="none" xmlns="http://www.w3.org/2000/svg">
<path fill-rule="evenodd" clip-rule="evenodd" d="M183.788 62.6324C93.5376 82.9459 29.1478 150.866 29.1478 227.091C29.1478 274.324 53.1268 319.931 96.3485 352.349L64.6461 420.018C58.3769 433.399 61.6834 449.466 72.682 459.061C83.68 468.655 99.5763 469.341 111.312 460.727L202.45 394.823L233.075 408.502V442.097C233.075 449.671 234.429 456.912 236.886 463.569C237.748 465.903 242 474.235 243.374 476.283C253.586 491.507 270.383 501.372 289.311 501.372H309.424C328.353 501.372 345.15 491.507 355.362 476.283C356.736 474.235 360.988 465.903 361.849 463.569C364.306 456.912 365.661 449.671 365.661 442.097V408.462L397.551 394.823L488.688 460.727C500.424 469.341 516.32 468.655 527.318 459.061C538.317 449.466 541.623 433.399 535.354 420.018L503.651 352.349C546.873 319.93 570.852 274.324 570.852 227.091C570.852 150.866 506.462 82.9459 416.212 62.6324C386.995 32.1085 345.81 13.0112 300 13.0112C254.19 13.0112 213.005 32.1085 183.788 62.6324Z" fill="white"/>
<path fill-rule="evenodd" clip-rule="evenodd" d="M83.2204 355.486L55.0956 415.519C46.8204 433.183 51.2387 454.379 65.7559 467.043C80.4888 479.896 101.778 480.811 117.508 469.292L203.7 406.964L222.523 415.371V442.097C222.523 450.967 224.113 459.446 226.99 467.241C228.003 469.986 233.003 479.781 234.618 482.189C246.767 500.298 266.793 511.953 289.311 511.953H309.424C331.942 511.953 351.969 500.298 364.117 482.189C365.733 479.781 370.733 469.986 371.746 467.241C374.623 459.446 376.213 450.967 376.213 442.097V415.452L396.21 406.899L482.492 469.292C498.222 480.811 519.511 479.896 534.244 467.043C548.761 454.379 553.18 433.183 544.904 415.519L516.781 355.489C558.56 321.326 581.404 274.931 581.404 227.091C581.404 147.289 515.479 75.3711 421.596 53.0202C390.617 21.8315 347.658 2.43094 300 2.43094C252.342 2.43094 209.383 21.8315 178.404 53.0202H178.405C84.5214 75.3704 18.5959 147.289 18.5959 227.091C18.5959 274.93 41.4387 321.324 83.2204 355.486ZM183.789 62.6325C93.5377 82.946 29.1478 150.866 29.1478 227.091C29.1478 274.324 53.1268 319.931 96.3485 352.349L64.6461 420.018C58.377 433.399 61.6834 449.466 72.6821 459.061C83.68 468.655 99.5763 469.341 111.312 460.727L202.45 394.823L233.075 408.502V442.097C233.075 449.671 234.429 456.912 236.886 463.569C237.748 465.903 242 474.235 243.374 476.283C253.586 491.507 270.383 501.372 289.311 501.372H309.424C328.353 501.372 345.15 491.507 355.362 476.283C356.736 474.235 360.988 465.903 361.85 463.569C364.306 456.912 365.661 449.671 365.661 442.097V408.462L397.551 394.823L488.688 460.727C500.424 469.341 516.32 468.655 527.318 459.061C538.317 449.466 541.623 433.399 535.354 420.018L503.652 352.349C546.873 319.93 570.852 274.324 570.852 227.091C570.852 150.866 506.462 82.946 416.212 62.6325C386.995 32.1085 345.81 13.0112 300 13.0112C254.19 13.0112 213.005 32.1085 183.789 62.6325V62.6325Z" fill="#323232"/>
<path fill-rule="evenodd" clip-rule="evenodd" d="M445.799 105.837C501.502 129.275 539.315 174.809 539.315 227.091C539.315 272.123 510.8 314.326 462.913 340.166L506.963 434.193L403.103 360.444L402.379 296.949C438.145 267.452 460.745 222.951 460.745 173.353C460.745 149.287 455.395 126.398 445.799 105.837V105.837Z" fill="url(#paint0_linear_101_2)"/>
<path fill-rule="evenodd" clip-rule="evenodd" d="M154.201 105.837C98.4983 129.275 60.6848 174.809 60.6848 227.091C60.6848 272.123 89.2 314.326 137.087 340.166L93.0366 434.193L196.897 360.444L196.281 295.833C161.292 266.335 139.255 222.331 139.255 173.353C139.255 149.287 144.605 126.398 154.201 105.837V105.837Z" fill="url(#paint1_linear_101_2)"/>
<path fill-rule="evenodd" clip-rule="evenodd" d="M230.55 277.788C196.206 255.435 173.519 216.991 173.519 173.353C173.519 104.381 230.193 48.3847 300 48.3847C369.807 48.3847 426.481 104.381 426.481 173.353C426.481 217.55 403.209 256.419 368.115 278.645V346.566C368.115 365.389 353.313 380.67 335.08 380.67H263.58C245.348 380.67 230.546 365.389 230.546 346.566V278.359C230.546 278.169 230.547 277.979 230.55 277.788Z" stroke="#F9C74F" stroke-width="26.7" stroke-miterlimit="1.5" stroke-linecap="round" stroke-linejoin="round"/>
<path fill-rule="evenodd" clip-rule="evenodd" d="M343.507 467.284C336.062 478.457 323.844 485.752 310.046 485.752H289.955C276.156 485.752 263.938 478.457 256.494 467.284H343.507V467.284ZM351.105 438.136V441.846C351.105 447.489 350.108 452.886 348.289 457.847H251.71C249.892 452.886 248.895 447.489 248.895 441.846V438.136H351.105ZM351.162 409.425H248.838V429.017H351.162V409.425Z" fill="#323232"/>
<defs>
<linearGradient id="paint0_linear_101_2" x1="447.458" y1="105.837" x2="534.588" y2="256.989" gradientUnits="userSpaceOnUse">
<stop stop-color="#68C5FF"/>
<stop offset="1" stop-color="#20AAFF"/>
</linearGradient>
<linearGradient id="paint1_linear_101_2" x1="151.888" y1="105.827" x2="60.3486" y2="256.964" gradientUnits="userSpaceOnUse">
<stop stop-color="#63EDA8"/>
<stop offset="1" stop-color="#05DA71"/>
</linearGradient>
</defs>
</svg>
