<?xml version="1.0" encoding="UTF-8" standalone="no"?>
<!DOCTYPE svg PUBLIC "-//W3C//DTD SVG 1.1//EN" "http://www.w3.org/Graphics/SVG/1.1/DTD/svg11.dtd">
<svg width="100%" height="100%" viewBox="0 0 885 762" version="1.1" xmlns="http://www.w3.org/2000/svg" xmlns:xlink="http://www.w3.org/1999/xlink" xml:space="preserve" xmlns:serif="http://www.serif.com/" style="fill-rule:evenodd;clip-rule:evenodd;stroke-linejoin:round;stroke-miterlimit:2;">
    <path d="M122.75,522.935L81.266,611.246C69.06,637.23 75.577,668.411 96.99,687.04C118.721,705.947 150.123,707.294 173.324,690.348L300.458,598.661L328.221,611.029L328.221,650.344C328.221,663.391 330.566,675.864 334.81,687.331C336.304,691.369 343.679,705.778 346.062,709.32C363.981,735.96 393.52,753.104 426.734,753.104L456.401,753.104C489.615,753.104 519.154,735.96 537.073,709.32C539.456,705.778 546.831,691.369 548.325,687.331C552.569,675.864 554.914,663.391 554.914,650.344L554.914,611.148L584.41,598.566L711.676,690.348C734.877,707.294 766.279,705.947 788.01,687.04C809.423,668.411 815.94,637.23 803.734,611.246L762.252,522.939C823.876,472.684 857.571,404.435 857.571,334.06C857.571,216.668 760.331,110.874 621.854,77.995C576.16,32.115 512.795,3.576 442.5,3.576C372.205,3.576 308.84,32.115 263.146,77.995L263.147,77.995C124.669,110.873 27.429,216.668 27.429,334.06C27.429,404.434 61.122,472.681 122.75,522.935ZM271.088,92.135C137.968,122.017 42.993,221.931 42.993,334.06C42.993,403.542 78.362,470.632 142.114,518.32L95.353,617.864C86.106,637.549 90.983,661.184 107.206,675.298C123.428,689.412 146.875,690.421 164.185,677.749L298.614,580.801L343.785,600.924L343.785,650.344C343.785,661.485 345.783,672.137 349.407,681.929C350.678,685.363 356.95,697.62 358.976,700.633C374.039,723.027 398.815,737.54 426.734,737.54L456.401,737.54C484.321,737.54 509.096,723.027 524.159,700.633C526.186,697.62 532.457,685.363 533.728,681.929C537.352,672.137 539.35,661.485 539.35,650.344L539.35,600.865L586.387,580.801L720.815,677.749C738.125,690.421 761.572,689.412 777.794,675.298C794.017,661.184 798.894,637.549 789.647,617.864L742.886,518.32C806.638,470.631 842.007,403.542 842.007,334.06C842.007,221.931 747.032,122.017 613.912,92.135C570.818,47.233 510.07,19.14 442.5,19.14C374.93,19.14 314.182,47.233 271.088,92.135ZM506.673,687.395C495.692,703.831 477.67,714.562 457.318,714.562L427.684,714.562C407.33,714.562 389.308,703.831 378.329,687.395L506.673,687.395ZM517.88,644.516L517.88,649.975C517.88,658.276 516.409,666.215 513.727,673.513L371.273,673.513C368.591,666.215 367.12,658.276 367.12,649.975L367.12,644.516L517.88,644.516ZM227.447,155.691C145.285,190.169 89.51,257.151 89.51,334.06C89.51,400.305 131.57,462.387 202.204,500.399L137.229,638.716L290.423,530.228L289.515,435.183C237.906,391.79 205.401,327.058 205.401,255.009C205.401,219.607 213.292,185.937 227.447,155.691ZM657.553,155.691C739.715,190.169 795.49,257.151 795.49,334.06C795.49,400.305 753.43,462.387 682.796,500.399L747.771,638.716L594.577,530.228L593.509,436.825C646.264,393.433 679.599,327.971 679.599,255.009C679.599,219.607 671.708,185.937 657.553,155.691ZM517.964,602.282L367.036,602.282L367.036,631.102L517.964,631.102L517.964,602.282ZM340.062,408.638C289.404,375.756 255.941,319.203 255.941,255.009C255.941,153.549 339.535,71.176 442.5,71.176C545.465,71.176 629.059,153.549 629.059,255.009C629.059,320.025 594.733,377.203 542.97,409.898L542.97,509.814C542.97,537.503 521.136,559.982 494.243,559.982L388.781,559.982C361.888,559.982 340.055,537.503 340.055,509.814L340.055,409.478C340.055,409.198 340.057,408.919 340.062,408.638Z"/>
</svg>
